<?xml version="1.0" standalone="no"?>
<!DOCTYPE svg PUBLIC "-//W3C//DTD SVG 20010904//EN"
 "http://www.w3.org/TR/2001/REC-SVG-20010904/DTD/svg10.dtd">
<svg version="1.0" xmlns="http://www.w3.org/2000/svg"
 width="260.000000pt" height="260.000000pt" viewBox="0 0 260.000000 260.000000"
 preserveAspectRatio="xMidYMid meet">
<metadata>
Created by potrace 1.11, written by Peter Selinger 2001-2013
</metadata>
<g transform="translate(0.000000,260.000000) scale(0.100000,-0.100000)"
fill="#000000" stroke="none">
<path d="M1184 2048 c-6 -7 -25 -49 -44 -93 -18 -44 -44 -102 -56 -130 -12
-27 -61 -140 -109 -250 -48 -110 -96 -220 -108 -245 -11 -25 -41 -94 -67 -155
-26 -60 -59 -135 -72 -165 -14 -30 -44 -98 -67 -151 l-43 -95 -131 0 -132 1
-3 -112 -3 -113 956 0 956 0 -3 113 -3 112 -137 0 -137 0 -34 80 c-19 44 -79
181 -132 305 -53 124 -103 239 -110 255 -17 38 -32 75 -168 390 l-112 260
-116 3 c-85 2 -119 -1 -125 -10z m269 -623 c80 -187 175 -409 211 -493 36 -84
66 -156 66 -160 0 -4 -198 -7 -440 -7 -242 0 -440 3 -440 8 0 4 4 15 10 25 5
9 19 40 31 67 12 28 29 68 39 90 10 22 59 135 110 250 50 116 98 224 105 240
8 17 35 77 60 135 81 184 89 200 95 193 4 -5 73 -161 153 -348z"/>
</g>
</svg>
