<svg xmlns="http://www.w3.org/2000/svg" width="237.609" height="26" viewBox="0 0 237.609 26">
  <g id="logo_duvernoix_legal_ru" data-name="logo_duvernoix legal_ru" transform="translate(-12.3 -10)">
    <path id="Path_1" data-name="Path 1" d="M56.633,15.459a8.317,8.317,0,0,0-1.11-2.221,10.53,10.53,0,0,0-1.758-1.758,8.317,8.317,0,0,0-2.221-1.11A12.5,12.5,0,0,0,48.954,10a7.793,7.793,0,0,0-2.5.37,8.317,8.317,0,0,0-2.221,1.11,7.521,7.521,0,0,0-1.758,1.665,9.678,9.678,0,0,0-1.2,2.128,7.708,7.708,0,0,0-.37,1.388H38.221v-6.2H36V25.637h2.128V18.883h2.683a9.679,9.679,0,0,0,.37,1.573,8.317,8.317,0,0,0,1.11,2.221,7.922,7.922,0,0,0,1.758,1.758,8.317,8.317,0,0,0,2.221,1.11,7.983,7.983,0,0,0,2.591.37,7.091,7.091,0,0,0,2.5-.37,8.317,8.317,0,0,0,2.221-1.11,7.521,7.521,0,0,0,1.758-1.665,8.518,8.518,0,0,0,1.2-2.221,7.97,7.97,0,0,0,.093-5.089m-2.221,4.719a5.162,5.162,0,0,1-1.3,1.851,5.784,5.784,0,0,1-1.851,1.2,6.442,6.442,0,0,1-2.313.463,5.966,5.966,0,0,1-1.851-.278,13.108,13.108,0,0,1-1.665-.74,7.99,7.99,0,0,1-1.3-1.2A5.144,5.144,0,0,1,43.31,19.9a5.966,5.966,0,0,1-.278-1.851,6.061,6.061,0,0,1,.463-2.313,5.162,5.162,0,0,1,1.3-1.851,5.784,5.784,0,0,1,1.851-1.2,6.443,6.443,0,0,1,2.313-.463A5.966,5.966,0,0,1,50.8,12.5a13.109,13.109,0,0,1,1.665.74,7.99,7.99,0,0,1,1.3,1.2,5.144,5.144,0,0,1,.833,1.573,5.966,5.966,0,0,1,.278,1.851,6.061,6.061,0,0,1-.463,2.313" transform="translate(-1.771 0)" fill="#251c5c"/>
    <path id="Path_2" data-name="Path 2" d="M75.8,19.938a5.9,5.9,0,0,0-.74-1.3,6.281,6.281,0,0,0-1.11-1.11,5.987,5.987,0,0,0,.74-.833,4.322,4.322,0,0,0,.463-.925,4.644,4.644,0,0,0,.185-1.11,3.522,3.522,0,0,0-.37-1.758,3.319,3.319,0,0,0-.925-1.3,3.484,3.484,0,0,0-1.388-.833A5.387,5.387,0,0,0,70.9,10.5H62.2V25.674h9.808a3.935,3.935,0,0,0,1.018-.185,3.867,3.867,0,0,0,.925-.37c.278-.185.555-.37.925-.648a3.068,3.068,0,0,0,.925-1.3,4.359,4.359,0,0,0,.37-1.573,6.4,6.4,0,0,0-.37-1.665m-11.381-7.31H70.9a4.688,4.688,0,0,1,1.2.185,1.284,1.284,0,0,1,.74.648,1.973,1.973,0,0,1,.278,1.11,2.561,2.561,0,0,1-.278,1.2,2.816,2.816,0,0,1-.74.74,2.54,2.54,0,0,1-1.2.185H64.421Zm9.345,9.345a3.246,3.246,0,0,1-.463.74,2.812,2.812,0,0,1-.648.463,1.743,1.743,0,0,1-.74.185H64.421V18.92H70.9a4.5,4.5,0,0,1,1.11.093,2.771,2.771,0,0,1,.925.37,1.458,1.458,0,0,1,.648.648,1.973,1.973,0,0,1,.278,1.11,2.561,2.561,0,0,1-.093.833" transform="translate(-3.729 -0.037)" fill="#251c5c"/>
    <path id="Path_3" data-name="Path 3" d="M93.869,25.574V23.354H83.321V18.82H88.41V16.6H83.321V12.713H93.5V10.4H81.1V25.574Z" transform="translate(-5.142 -0.03)" fill="#251c5c"/>
    <path id="Path_4" data-name="Path 4" d="M111.076,12.436a3.5,3.5,0,0,0-1.573-1.48,4.752,4.752,0,0,0-2.313-.555H98.4V25.574h2.221V19.19h6.569a4.507,4.507,0,0,0,2.313-.555,4.037,4.037,0,0,0,1.573-1.48,4.507,4.507,0,0,0,.555-2.313,4.63,4.63,0,0,0-.555-2.406m-2.221,3.979a2.262,2.262,0,0,1-1.665.555h-6.569V12.713h6.569a4.106,4.106,0,0,1,1.2.185,1.714,1.714,0,0,1,.74.648,2.315,2.315,0,0,1,.278,1.2,2.262,2.262,0,0,1-.555,1.665" transform="translate(-6.435 -0.03)" fill="#251c5c"/>
    <path id="Path_5" data-name="Path 5" d="M129.831,25.574V10.4h-2.221v6.2h-8.883V10.4H116.6V25.574h2.128V18.82h8.883v6.754Z" transform="translate(-7.795 -0.03)" fill="#251c5c"/>
    <path id="Path_6" data-name="Path 6" d="M158.753,10.5h-2.406L149.5,25.582h2.406l2.221-4.9h6.754l2.128,4.9h2.5Zm-3.7,7.865,2.406-5.274,2.406,5.274Z" transform="translate(-10.253 -0.037)" fill="#251c5c"/>
    <path id="Path_7" data-name="Path 7" d="M195.9,25.582,189.145,10.5H186.74L179.8,25.582h2.406l5.644-12.491L193.4,25.582Z" transform="translate(-12.518 -0.037)" fill="#7ea52e"/>
    <path id="Path_8" data-name="Path 8" d="M267.6,25.582,260.845,10.5H258.44L251.5,25.582h2.406l5.644-12.491L265.1,25.582Z" transform="translate(-17.876 -0.037)" fill="#7ea52e"/>
    <path id="Path_9" data-name="Path 9" d="M29.447,23.361,23.711,10.5H21.3L15.476,23.361H12.7v2.221H32.316V23.361Zm-11.658,0,4.626-10.178,4.534,10.178Z" transform="translate(-0.03 -0.037)" fill="#251c5c"/>
    <path id="Path_10" data-name="Path 10" d="M233.081,10.4v2.221h-9.16V25.574H221.7V10.4Z" transform="translate(-15.649 -0.03)" fill="#7ea52e"/>
    <path id="Path_11" data-name="Path 11" d="M241.253,10.5h-2.406L232,25.582h2.406l2.221-4.9h6.754l2.128,4.9h2.5Zm-3.609,7.865,2.406-5.274,2.406,5.274Z" transform="translate(-16.419 -0.037)" fill="#7ea52e"/>
    <path id="Path_12" data-name="Path 12" d="M134.8,10.4h2.776l5.274,7.032,5.274-7.032H150.9L139.519,25.574h-2.776l4.719-6.292Z" transform="translate(-9.155 -0.03)" fill="#251c5c"/>
    <path id="Path_13" data-name="Path 13" d="M201.1,25.574V10.4h2.221V21.966L213.776,10.4H215.9V25.574h-2.128V14.009L203.228,25.574Z" transform="translate(-14.11 -0.03)" fill="#7ea52e"/>
    <path id="Path_14" data-name="Path 14" d="M12.393,36.644a3.148,3.148,0,0,1-.093.925H249.909V31Z" transform="translate(0 -1.569)" fill="#7ea52e"/>
  </g>
</svg>
