<svg id="XMLID_801_" xmlns="http://www.w3.org/2000/svg" width="15.503" height="15.469" viewBox="0 0 15.503 15.469">
  <path id="XMLID_802_" d="M8.289,99.73H5.177a.25.25,0,0,0-.25.25v10a.25.25,0,0,0,.25.25H8.289a.25.25,0,0,0,.25-.25v-10A.25.25,0,0,0,8.289,99.73Z" transform="translate(-4.681 -94.76)" fill="#302643"/>
  <path id="XMLID_803_" d="M2.054.341A2.052,2.052,0,1,0,4.106,2.392,2.055,2.055,0,0,0,2.054.341Z" transform="translate(0 -0.341)" fill="#302643"/>
  <path id="XMLID_804_" d="M112.391,94.761a3.655,3.655,0,0,0-2.734,1.148V95.26a.25.25,0,0,0-.25-.25h-2.981a.25.25,0,0,0-.25.25v10a.25.25,0,0,0,.25.25h3.105a.25.25,0,0,0,.25-.25v-4.947c0-1.667.453-2.316,1.615-2.316,1.266,0,1.366,1.041,1.366,2.4v4.861a.25.25,0,0,0,.25.25h3.107a.25.25,0,0,0,.25-.25V99.774C116.369,97.295,115.9,94.761,112.391,94.761Z" transform="translate(-100.866 -90.039)" fill="#302643"/>
</svg>
